<svg width="59" height="46" viewBox="0 0 59 46" fill="none" xmlns="http://www.w3.org/2000/svg">
<path d="M52.2212 0.5H7.02885C3.28499 0.5 0.25 3.24734 0.25 6.63636V39.3636C0.25 42.7527 3.28499 45.5 7.02885 45.5H52.2212C55.965 45.5 59 42.7527 59 39.3636V6.63636C59 3.24734 55.965 0.5 52.2212 0.5ZM7.02885 4.59091H52.2212C53.4691 4.59091 54.4808 5.50669 54.4808 6.63636V12.3649H4.76923V21.044H54.4808V39.3636C54.4808 40.4933 53.4691 41.4091 52.2212 41.4091H7.02885C5.7809 41.4091 4.76923 40.4933 4.76923 39.3636C4.76923 32.139 4.76923 26.7086 4.76923 21.044C4.76923 18.2847 4.76923 15.4698 4.76923 12.3649C4.76923 10.5677 4.76923 8.67336 4.76923 6.63636C4.76923 5.50669 5.7809 4.59091 7.02885 4.59091Z" fill="#E2EBF0"/>
<path d="M11.5481 37.3182C10.3001 37.3182 9.28846 36.4024 9.28846 35.2727C9.28846 34.2237 10.1608 33.3592 11.2846 33.241L11.5481 33.2273H29.625C30.873 33.2273 31.8846 34.1431 31.8846 35.2727C31.8846 36.3217 31.0123 37.1863 29.8885 37.3044L29.625 37.3182H11.5481Z" fill="#E2EBF0"/>
</svg>
