<svg width="48" height="48" viewBox="0 0 48 48" fill="none" xmlns="http://www.w3.org/2000/svg">
<path fill-rule="evenodd" clip-rule="evenodd" d="M24.25 0.25C37.3668 0.25 48 10.8832 48 24C48 37.1168 37.3668 47.75 24.25 47.75C11.1332 47.75 0.5 37.1168 0.5 24C0.5 10.8832 11.1332 0.25 24.25 0.25ZM24.25 9.38462C23.241 9.38462 22.4231 10.2026 22.4231 11.2115L22.4235 11.3386C18.2815 11.928 15.1154 14.5361 15.1154 18.5192C15.1154 21.343 17.5088 23.472 22.4229 25.2943L22.4228 32.9566C20.2068 32.4983 18.7692 31.1933 18.7692 29.4808L18.7569 29.2677C18.6514 28.3591 17.8792 27.6538 16.9423 27.6538C15.9333 27.6538 15.1154 28.4718 15.1154 29.4808C15.1154 33.4639 18.2815 36.072 22.4235 36.6614L22.4231 36.7885L22.4354 37.0015C22.5409 37.9101 23.3131 38.6154 24.25 38.6154C25.259 38.6154 26.0769 37.7974 26.0769 36.7885L26.0784 36.6611C30.2194 36.0713 33.3846 33.4633 33.3846 29.4808C33.3846 26.6531 30.9963 24.5294 26.08 22.7066L26.079 15.0438C28.294 15.5024 29.7308 16.8072 29.7308 18.5192L29.7431 18.7323C29.8486 19.6409 30.6208 20.3462 31.5577 20.3462C32.5667 20.3462 33.3846 19.5282 33.3846 18.5192C33.3846 14.5367 30.2194 11.9287 26.0784 11.3389L26.0769 11.2115L26.0646 10.9985C25.9591 10.0899 25.1869 9.38462 24.25 9.38462ZM26.0801 26.6304C26.6167 26.857 27.0866 27.0784 27.4946 27.2938L28.0156 27.5852C29.2235 28.3037 29.7308 28.9468 29.7308 29.4808C29.7308 31.1928 28.294 32.4976 26.079 32.9562L26.0801 26.6304ZM22.4228 15.0434L22.4205 21.3693C19.8022 20.2624 18.7692 19.2773 18.7692 18.5192C18.7692 16.8067 20.2068 15.5017 22.4228 15.0434Z" fill="#E2EBF0"/>
</svg>
