<svg width="115" height="28" viewBox="0 0 115 28" fill="none" xmlns="http://www.w3.org/2000/svg">
<g clip-path="url(#clip0_219_1474)">
<path d="M23 13.04V14.006C22.9987 16.2703 22.2655 18.4734 20.9098 20.2869C19.5541 22.1004 17.6484 23.4271 15.4771 24.0691C13.3058 24.7111 10.9851 24.634 8.86119 23.8493C6.73726 23.0646 4.92389 21.6144 3.69151 19.7149C2.45913 17.8154 1.87378 15.5685 2.02276 13.3091C2.17174 11.0498 3.04707 8.89915 4.51819 7.17794C5.98932 5.45672 7.97742 4.25716 10.186 3.75816C12.3946 3.25917 14.7053 3.48746 16.7735 4.40901" stroke="#219D35" stroke-width="2" stroke-linecap="round" stroke-linejoin="round"/>
<path d="M9.35007 12.9555L12.5001 16.1055L23.0001 5.60547" stroke="#219D35" stroke-width="2" stroke-linecap="round" stroke-linejoin="round"/>
<path d="M34.3263 21V10.0909H38.2468V21H34.3263ZM36.2866 8.95455C35.7563 8.95455 35.3017 8.77936 34.9229 8.42898C34.5442 8.0786 34.3548 7.6572 34.3548 7.16477C34.3548 6.67235 34.5442 6.25095 34.9229 5.90057C35.3017 5.55019 35.7563 5.375 36.2866 5.375C36.8216 5.375 37.2762 5.55019 37.6502 5.90057C38.029 6.25095 38.2184 6.67235 38.2184 7.16477C38.2184 7.6572 38.029 8.0786 37.6502 8.42898C37.2762 8.77936 36.8216 8.95455 36.2866 8.95455ZM44.1648 14.8636V21H40.2443V10.0909H43.9659V12.1648H44.0795C44.3163 11.4735 44.733 10.9313 45.3295 10.5384C45.9309 10.1454 46.6316 9.94886 47.4318 9.94886C48.2036 9.94886 48.8736 10.1264 49.4418 10.4815C50.0147 10.8319 50.4574 11.3149 50.7699 11.9304C51.0871 12.5459 51.2434 13.2491 51.2386 14.0398V21H47.3182V14.8636C47.3229 14.3239 47.1856 13.9001 46.9062 13.5923C46.6316 13.2846 46.2481 13.1307 45.7557 13.1307C45.4337 13.1307 45.152 13.2017 44.9105 13.3438C44.6738 13.4811 44.4915 13.6799 44.3636 13.9403C44.2358 14.196 44.1695 14.5038 44.1648 14.8636ZM67.13 13.642H63.522C63.5031 13.4195 63.425 13.2277 63.2876 13.0668C63.1503 12.9058 62.9728 12.7827 62.755 12.6974C62.5419 12.6075 62.3052 12.5625 62.0447 12.5625C61.7086 12.5625 61.4197 12.6241 61.1783 12.7472C60.9368 12.8703 60.8184 13.0455 60.8232 13.2727C60.8184 13.4337 60.8871 13.5829 61.0291 13.7202C61.1759 13.8575 61.4576 13.964 61.8743 14.0398L64.0902 14.4375C65.2076 14.6411 66.0386 14.9844 66.5831 15.4673C67.1323 15.9455 67.4093 16.5871 67.4141 17.392C67.4093 18.1686 67.1773 18.8433 66.718 19.4162C66.2635 19.9844 65.6409 20.4247 64.8501 20.7372C64.0642 21.045 63.1669 21.1989 62.1584 21.1989C60.4917 21.1989 59.1873 20.858 58.245 20.1761C57.3075 19.4943 56.7843 18.5947 56.6754 17.4773H60.5675C60.6196 17.8229 60.79 18.0904 61.0788 18.2798C61.3724 18.4645 61.7417 18.5568 62.1868 18.5568C62.5466 18.5568 62.8426 18.4953 63.0746 18.3722C63.3113 18.2491 63.4321 18.0739 63.4368 17.8466C63.4321 17.6383 63.3279 17.4725 63.1243 17.3494C62.9254 17.2263 62.6129 17.1269 62.1868 17.0511L60.255 16.7102C59.1423 16.5161 58.3089 16.1468 57.755 15.6023C57.201 15.0578 56.9264 14.357 56.9311 13.5C56.9264 12.7424 57.1252 12.1009 57.5277 11.5753C57.9349 11.045 58.5149 10.6425 59.2678 10.3679C60.0253 10.0885 60.9226 9.94886 61.9595 9.94886C63.5362 9.94886 64.7791 10.2756 65.6882 10.929C66.602 11.5824 67.0826 12.4867 67.13 13.642ZM75.4219 10.0909V12.9318H68.2344V10.0909H75.4219ZM69.6264 7.47727H73.5469V17.4915C73.5469 17.643 73.5729 17.7708 73.625 17.875C73.6771 17.9744 73.7576 18.0502 73.8665 18.1023C73.9754 18.1496 74.1151 18.1733 74.2855 18.1733C74.4039 18.1733 74.5412 18.1591 74.6974 18.1307C74.8584 18.1023 74.9768 18.0786 75.0526 18.0597L75.6207 20.8153C75.4455 20.8674 75.1946 20.9313 74.8679 21.0071C74.5459 21.0829 74.1624 21.1326 73.7173 21.1562C72.8177 21.2036 72.0625 21.1113 71.4517 20.8793C70.8409 20.6425 70.3816 20.2708 70.0739 19.7642C69.7661 19.2576 69.617 18.6231 69.6264 17.8608V7.47727ZM82.1602 21.1989C80.9764 21.1989 79.9632 20.9645 79.1204 20.4957C78.2776 20.0223 77.6313 19.3641 77.1815 18.5213C76.7317 17.6738 76.5067 16.6913 76.5067 15.5739C76.5067 14.4564 76.7317 13.4763 77.1815 12.6335C77.6313 11.786 78.2776 11.1278 79.1204 10.6591C79.9632 10.1856 80.9764 9.94886 82.1602 9.94886C83.3439 9.94886 84.3571 10.1856 85.1999 10.6591C86.0427 11.1278 86.689 11.786 87.1388 12.6335C87.5887 13.4763 87.8136 14.4564 87.8136 15.5739C87.8136 16.6913 87.5887 17.6738 87.1388 18.5213C86.689 19.3641 86.0427 20.0223 85.1999 20.4957C84.3571 20.9645 83.3439 21.1989 82.1602 21.1989ZM82.1886 18.3011C82.52 18.3011 82.8065 18.1899 83.0479 17.9673C83.2894 17.7448 83.4764 17.4276 83.609 17.0156C83.7416 16.6037 83.8079 16.1136 83.8079 15.5455C83.8079 14.9725 83.7416 14.4825 83.609 14.0753C83.4764 13.6634 83.2894 13.3461 83.0479 13.1236C82.8065 12.901 82.52 12.7898 82.1886 12.7898C81.8382 12.7898 81.5375 12.901 81.2866 13.1236C81.0356 13.3461 80.8439 13.6634 80.7113 14.0753C80.5787 14.4825 80.5124 14.9725 80.5124 15.5455C80.5124 16.1136 80.5787 16.6037 80.7113 17.0156C80.8439 17.4276 81.0356 17.7448 81.2866 17.9673C81.5375 18.1899 81.8382 18.3011 82.1886 18.3011ZM94.6602 21.1989C93.4764 21.1989 92.4632 20.9645 91.6204 20.4957C90.7776 20.0223 90.1313 19.3641 89.6815 18.5213C89.2317 17.6738 89.0067 16.6913 89.0067 15.5739C89.0067 14.4564 89.2317 13.4763 89.6815 12.6335C90.1313 11.786 90.7776 11.1278 91.6204 10.6591C92.4632 10.1856 93.4764 9.94886 94.6602 9.94886C95.7302 9.94886 96.6559 10.143 97.4371 10.5312C98.2231 10.9148 98.8316 11.4593 99.2624 12.1648C99.6933 12.8655 99.9111 13.6894 99.9158 14.6364H96.2795C96.2274 14.0634 96.0617 13.6278 95.7823 13.3295C95.5077 13.0265 95.1526 12.875 94.717 12.875C94.3761 12.875 94.0778 12.9744 93.8221 13.1733C93.5664 13.3674 93.3675 13.6634 93.2255 14.0611C93.0835 14.4541 93.0124 14.9489 93.0124 15.5455C93.0124 16.142 93.0835 16.6392 93.2255 17.0369C93.3675 17.4299 93.5664 17.7259 93.8221 17.9247C94.0778 18.1188 94.3761 18.2159 94.717 18.2159C95.0058 18.2159 95.2615 18.1496 95.484 18.017C95.7066 17.8797 95.8865 17.6809 96.0238 17.4205C96.1658 17.1553 96.2511 16.8333 96.2795 16.4545H99.9158C99.9016 17.4157 99.6815 18.2538 99.2553 18.9688C98.8292 19.679 98.2255 20.2282 97.4442 20.6165C96.6677 21.0047 95.7397 21.1989 94.6602 21.1989ZM105.056 18.4148L105.085 13.7557H105.596L108.238 10.0909H112.641L108.21 15.8011H107.102L105.056 18.4148ZM101.533 21V6.45455H105.454V21H101.533ZM108.266 21L105.766 16.6818L108.323 13.8977L112.755 21H108.266Z" fill="#219D35"/>
</g>
<defs>
<clipPath id="clip0_219_1474">
<rect width="115" height="27" fill="white" transform="translate(0 0.5)"/>
</clipPath>
</defs>
</svg>
