<svg width="80" height="32" viewBox="0 0 80 32" fill="none" xmlns="http://www.w3.org/2000/svg">
<path d="M66.5 17.0478C65.2328 17.0478 64.1983 16.0133 64.1983 14.7461C64.1983 13.4659 65.2328 12.4444 66.5 12.4444C67.7672 12.4444 68.8017 13.4789 68.8017 14.7461C68.8147 16.0133 67.7802 17.0478 66.5 17.0478ZM66.5 10.2461C64.0172 10.2461 62 12.2633 62 14.7461C62 17.2289 64.0172 19.2461 66.5 19.2461C68.9828 19.2461 71 17.2289 71 14.7461C71 12.2504 68.9828 10.2461 66.5 10.2461Z" fill="black"/>
<path d="M45.5 17.0478C44.2328 17.0478 43.1983 16.0133 43.1983 14.7461C43.1983 13.4659 44.2328 12.4444 45.5 12.4444C46.7672 12.4444 47.8017 13.4789 47.8017 14.7461C47.8017 16.0133 46.7672 17.0478 45.5 17.0478ZM45.5 10.2461C43.0172 10.2461 41 12.2633 41 14.7461C41 17.2289 43.0172 19.2461 45.5 19.2461C47.9828 19.2461 50 17.2289 50 14.7461C49.9871 12.2504 47.9828 10.2461 45.5 10.2461Z" fill="black"/>
<path d="M61.6901 17.0392C61.4061 17.122 60.9671 17.2185 60.8122 17.2185C60.0376 17.2185 59.8826 16.9289 59.8826 16.1564V11.7151H61.716V9.86678H59.8826V7.24609H57.8169L57.3779 9.86678H55.8286C54.6538 9.86678 53.7629 10.6392 53.1948 11.8392L52.4847 9.86678H51V19.0668H53.5305V15.0668C53.5305 13.053 54.6538 11.7564 55.9707 11.7151H57.3521V16.2944C57.3521 18.4461 58.385 19.2461 60.0634 19.2461C60.9284 19.2461 61.5998 19.053 62 18.9151L61.6901 17.0392Z" fill="black"/>
<path d="M74 13.0889V19.2461H72V10.2461H73.2147L73.623 11.6203" fill="black"/>
<path d="M74 11.801C74.7665 10.9181 75.8106 10.2461 77.0396 10.2461C79.141 10.2461 80 11.9196 80 13.4613V19.2461H77.4097V13.5404C77.4097 12.7893 76.7753 12.3808 76.1013 12.3808C75.3745 12.3808 74.9119 12.8025 74.5022 13.2373" fill="black"/>
<path d="M31 7.24609H34.1286L38.4143 14.784V7.24609H41V19.2461H38.1714L33.5857 10.9425V19.2461H31V7.24609Z" fill="black"/>
<path d="M13.5 8.50857C11.0384 8.50857 8.71929 9.4673 6.97025 11.2163C5.22121 12.9654 4.26248 15.2845 4.26248 17.7461C4.26248 20.2077 5.22121 22.5268 6.97025 24.2758C8.71929 26.0249 11.0384 26.9836 13.5 26.9836C15.9616 26.9836 18.2807 26.0249 20.0298 24.2758C21.7658 22.5268 22.7246 20.2077 22.7375 17.7461C22.7375 15.2845 21.7788 12.9654 20.0298 11.2163C18.2807 9.48026 15.9616 8.50857 13.5 8.50857ZM13.5 31.2461C6.06334 31.2461 0 25.1828 0 17.7461C0 10.2965 6.06334 4.24609 13.5 4.24609C20.9367 4.24609 27 10.2965 27 17.7461C27 25.1828 20.9367 31.2461 13.5 31.2461Z" fill="#FFC20E"/>
<path d="M30 2.24609H29V3.24609H30V2.24609Z" fill="#FFC20E"/>
<path d="M30 0.246094H29V1.24609H30V0.246094Z" fill="#FFC20E"/>
<path d="M27 3.24609H26V4.24609H27V3.24609Z" fill="white"/>
<path d="M25 5.24609H24V6.24609H25V5.24609Z" fill="black"/>
<path d="M28 4.24609H27V5.24609H28V4.24609Z" fill="black"/>
<path d="M24 4.24609H23V5.24609H24V4.24609Z" fill="black"/>
<path d="M27 5.24609H26V6.24609H27V5.24609Z" fill="black"/>
<path d="M29 1.24609H28V2.24609H29V1.24609Z" fill="black"/>
<path d="M28 2.24609H26V3.24609H28V2.24609Z" fill="black"/>
<path d="M26 3.24609H25V5.24609H26V3.24609Z" fill="black"/>
<path d="M25.047 6.24609V7.21967H24.0278V6.24609H22.3468V6.95065H21.4468V7.82174H22.4527V8.79531H21.4468V7.82174H20.3747V9.34615H19.3687V10.3197H18.6937V11.2933H17.9524C17.1186 12.4846 15.0537 16.1996 14.4184 17.7112C12.155 14.6624 10.3946 13.4582 9.01808 13.0227C8.27685 12.8049 7.3768 13.5863 8.60776 14.8289C11.4535 17.8649 12.3536 20.3629 13.2139 22.3741C13.6772 23.4245 15.7288 23.591 16.1391 22.515C17.0127 20.2476 18.2834 17.6855 19.7923 15.5975V14.5086H20.5997V13.5351H21.4468V12.395H22.4527V11.3061H21.4335V10.3069H22.4527V11.3061H23.4454V10.3197H24.2396V9.12838H25.1397V8.30853H26V6.24609H25.047Z" fill="black"/>
<path d="M34.5477 27.665C34.5477 28.042 34.4185 28.3359 34.16 28.5469C33.9016 28.7578 33.5508 28.8633 33.1077 28.8633C32.6277 28.8633 32.2585 28.7979 32 28.667V28.1865C32.1662 28.2607 32.3471 28.3193 32.5428 28.3623C32.7385 28.4053 32.9323 28.4268 33.1243 28.4268C33.4382 28.4268 33.6745 28.3643 33.8333 28.2393C33.992 28.1123 34.0714 27.9365 34.0714 27.7119C34.0714 27.5635 34.0428 27.4424 33.9856 27.3486C33.9302 27.2529 33.836 27.165 33.7031 27.085C33.572 27.0049 33.3717 26.9141 33.1022 26.8125C32.7255 26.6699 32.456 26.501 32.2935 26.3057C32.1329 26.1104 32.0526 25.8555 32.0526 25.541C32.0526 25.2109 32.1698 24.9482 32.4043 24.7529C32.6388 24.5576 32.9489 24.46 33.3348 24.46C33.7373 24.46 34.1074 24.5381 34.4453 24.6943L34.2985 25.1279C33.9643 24.9795 33.6394 24.9053 33.3237 24.9053C33.0745 24.9053 32.8797 24.9619 32.7394 25.0752C32.5991 25.1885 32.5289 25.3457 32.5289 25.5469C32.5289 25.6953 32.5548 25.8174 32.6065 25.9131C32.6582 26.0068 32.7449 26.0938 32.8668 26.1738C32.9905 26.252 33.1788 26.3389 33.4317 26.4346C33.8563 26.5947 34.148 26.7666 34.3068 26.9502C34.4674 27.1338 34.5477 27.3721 34.5477 27.665Z" fill="black"/>
<path d="M36.5887 28.8633C36.1401 28.8633 35.7856 28.7188 35.5253 28.4297C35.2668 28.1406 35.1376 27.7393 35.1376 27.2256C35.1376 26.708 35.2576 26.2969 35.4976 25.9922C35.7394 25.6875 36.0634 25.5352 36.4696 25.5352C36.8499 25.5352 37.1508 25.668 37.3724 25.9336C37.5939 26.1973 37.7047 26.5459 37.7047 26.9795V27.2871H35.6139C35.6231 27.6641 35.7127 27.9502 35.8825 28.1455C36.0542 28.3408 36.2951 28.4385 36.6053 28.4385C36.9321 28.4385 37.2551 28.3662 37.5745 28.2217V28.6553C37.4121 28.7295 37.2579 28.7822 37.1121 28.8135C36.9681 28.8467 36.7936 28.8633 36.5887 28.8633ZM36.4641 25.9424C36.2204 25.9424 36.0256 26.0264 35.8797 26.1943C35.7357 26.3623 35.6508 26.5947 35.625 26.8916H37.2118C37.2118 26.585 37.1471 26.3506 37.0179 26.1885C36.8887 26.0244 36.7041 25.9424 36.4641 25.9424Z" fill="black"/>
<path d="M39.7041 28.8633C39.2647 28.8633 38.9241 28.7207 38.6822 28.4355C38.4422 28.1484 38.3222 27.7432 38.3222 27.2197C38.3222 26.6826 38.4441 26.2676 38.6878 25.9746C38.9333 25.6816 39.2822 25.5352 39.7346 25.5352C39.8804 25.5352 40.0263 25.5518 40.1721 25.585C40.318 25.6182 40.4324 25.6572 40.5155 25.7021L40.3743 26.1152C40.2727 26.0723 40.162 26.0371 40.042 26.0098C39.9219 25.9805 39.8158 25.9658 39.7235 25.9658C39.1069 25.9658 38.7985 26.3818 38.7985 27.2139C38.7985 27.6084 38.8733 27.9111 39.0229 28.1221C39.1742 28.333 39.3976 28.4385 39.693 28.4385C39.9459 28.4385 40.2053 28.3809 40.4712 28.2656V28.6963C40.2681 28.8076 40.0124 28.8633 39.7041 28.8633Z" fill="black"/>
<path d="M41.626 25.5938V27.6768C41.626 27.9385 41.6823 28.1338 41.7949 28.2627C41.9075 28.3916 42.0838 28.4561 42.3238 28.4561C42.6414 28.4561 42.8731 28.3643 43.0189 28.1807C43.1666 27.9971 43.2405 27.6973 43.2405 27.2812V25.5938H43.7002V28.8047H43.3208L43.2543 28.374H43.2294C43.1352 28.5322 43.0041 28.6533 42.8361 28.7373C42.67 28.8213 42.4798 28.8633 42.2657 28.8633C41.8964 28.8633 41.6195 28.7705 41.4349 28.585C41.2521 28.3994 41.1607 28.1025 41.1607 27.6943V25.5938H41.626Z" fill="black"/>
<path d="M46.0623 25.5352C46.1971 25.5352 46.318 25.5469 46.4251 25.5703L46.3614 26.0215C46.2359 25.9922 46.1251 25.9775 46.0291 25.9775C45.7836 25.9775 45.5731 26.083 45.3977 26.2939C45.2242 26.5049 45.1374 26.7676 45.1374 27.082V28.8047H44.6777V25.5938H45.0571L45.1097 26.1885H45.1319C45.2445 25.9795 45.3802 25.8184 45.5389 25.7051C45.6977 25.5918 45.8722 25.5352 46.0623 25.5352Z" fill="black"/>
<path d="M47.4525 28.8047H46.9928V25.5938H47.4525V28.8047ZM46.954 24.7236C46.954 24.6123 46.9799 24.5312 47.0316 24.4805C47.0833 24.4277 47.1479 24.4014 47.2254 24.4014C47.2993 24.4014 47.363 24.4277 47.4165 24.4805C47.47 24.5332 47.4968 24.6143 47.4968 24.7236C47.4968 24.833 47.47 24.915 47.4165 24.9697C47.363 25.0225 47.2993 25.0488 47.2254 25.0488C47.1479 25.0488 47.0833 25.0225 47.0316 24.9697C46.9799 24.915 46.954 24.833 46.954 24.7236Z" fill="black"/>
<path d="M49.4076 28.4619C49.4888 28.4619 49.5673 28.4561 49.643 28.4443C49.7187 28.4307 49.7787 28.417 49.823 28.4033V28.7754C49.7732 28.8008 49.6993 28.8213 49.6015 28.8369C49.5055 28.8545 49.4187 28.8633 49.3411 28.8633C48.7541 28.8633 48.4605 28.5361 48.4605 27.8818V25.9717H48.0257V25.7373L48.4605 25.5352L48.6544 24.8496H48.9202V25.5938H49.8008V25.9717H48.9202V27.8613C48.9202 28.0547 48.9636 28.2031 49.0504 28.3066C49.1371 28.4102 49.2562 28.4619 49.4076 28.4619Z" fill="black"/>
<path d="M49.9504 25.5938H50.4433L51.1079 27.4248C51.2538 27.8428 51.3443 28.1445 51.3793 28.3301H51.4015C51.4255 28.2305 51.4753 28.0605 51.551 27.8203C51.6286 27.5781 51.8796 26.8359 52.3043 25.5938H52.7972L51.4929 29.25C51.3636 29.6113 51.2123 29.8672 51.0387 30.0176C50.867 30.1699 50.6556 30.2461 50.4045 30.2461C50.2642 30.2461 50.1258 30.2295 49.9892 30.1963V29.8066C50.0907 29.8301 50.2042 29.8418 50.3298 29.8418C50.6455 29.8418 50.8707 29.6543 51.0055 29.2793L51.1744 28.8223L49.9504 25.5938Z" fill="black"/>
<path d="M56.5662 24.9053C56.1212 24.9053 55.7695 25.0625 55.5111 25.377C55.2545 25.6895 55.1261 26.1182 55.1261 26.6631C55.1261 27.2236 55.2498 27.6572 55.4972 27.9639C55.7465 28.2686 56.1009 28.4209 56.5606 28.4209C56.8431 28.4209 57.1653 28.3672 57.5271 28.2598V28.6963C57.2465 28.8076 56.9003 28.8633 56.4886 28.8633C55.8923 28.8633 55.4317 28.6719 55.1068 28.2891C54.7837 27.9062 54.6221 27.3623 54.6221 26.6572C54.6221 26.2158 54.6997 25.8291 54.8548 25.4971C55.0117 25.165 55.2369 24.9092 55.5305 24.7295C55.8259 24.5498 56.1729 24.46 56.5717 24.46C56.9963 24.46 57.3674 24.542 57.685 24.7061L57.4856 25.1338C57.1791 24.9814 56.8726 24.9053 56.5662 24.9053Z" fill="black"/>
<path d="M60.4182 28.8047V26.7275C60.4182 26.4658 60.3619 26.2705 60.2493 26.1416C60.1367 26.0127 59.9604 25.9482 59.7204 25.9482C59.401 25.9482 59.1674 26.04 59.0197 26.2236C58.8739 26.4072 58.801 26.708 58.801 27.126V28.8047H58.3413V24.2461H58.801V25.626C58.801 25.792 58.7936 25.9297 58.7788 26.0391H58.8065C58.897 25.8848 59.0253 25.7637 59.1914 25.6758C59.3594 25.5859 59.5505 25.541 59.7647 25.541C60.1357 25.541 60.4136 25.6348 60.5982 25.8223C60.7847 26.0078 60.8779 26.3037 60.8779 26.71V28.8047H60.4182Z" fill="black"/>
<path d="M63.1072 28.8633C62.6586 28.8633 62.3041 28.7188 62.0438 28.4297C61.7853 28.1406 61.6561 27.7393 61.6561 27.2256C61.6561 26.708 61.7761 26.2969 62.0161 25.9922C62.2579 25.6875 62.5819 25.5352 62.9881 25.5352C63.3684 25.5352 63.6693 25.668 63.8909 25.9336C64.1124 26.1973 64.2232 26.5459 64.2232 26.9795V27.2871H62.1324C62.1416 27.6641 62.2312 27.9502 62.401 28.1455C62.5727 28.3408 62.8136 28.4385 63.1238 28.4385C63.4506 28.4385 63.7736 28.3662 64.093 28.2217V28.6553C63.9306 28.7295 63.7764 28.7822 63.6306 28.8135C63.4866 28.8467 63.3121 28.8633 63.1072 28.8633ZM62.9826 25.9424C62.7389 25.9424 62.5441 26.0264 62.3982 26.1943C62.2542 26.3623 62.1693 26.5947 62.1435 26.8916H63.7303C63.7303 26.585 63.6656 26.3506 63.5364 26.1885C63.4072 26.0244 63.2226 25.9424 62.9826 25.9424Z" fill="black"/>
<path d="M66.2226 28.8633C65.7832 28.8633 65.4426 28.7207 65.2007 28.4355C64.9607 28.1484 64.8407 27.7432 64.8407 27.2197C64.8407 26.6826 64.9626 26.2676 65.2063 25.9746C65.4518 25.6816 65.8008 25.5352 66.2531 25.5352C66.3989 25.5352 66.5448 25.5518 66.6906 25.585C66.8365 25.6182 66.9509 25.6572 67.034 25.7021L66.8928 26.1152C66.7912 26.0723 66.6805 26.0371 66.5605 26.0098C66.4405 25.9805 66.3343 25.9658 66.242 25.9658C65.6254 25.9658 65.317 26.3818 65.317 27.2139C65.317 27.6084 65.3918 27.9111 65.5414 28.1221C65.6927 28.333 65.9161 28.4385 66.2115 28.4385C66.4644 28.4385 66.7238 28.3809 66.9897 28.2656V28.6963C66.7866 28.8076 66.5309 28.8633 66.2226 28.8633Z" fill="black"/>
<path d="M68.1666 27.1611C68.246 27.042 68.3669 26.8857 68.5294 26.6924L69.5097 25.5938H70.0553L68.8257 26.9619L70.1411 28.8047H69.5845L68.5128 27.2871L68.1666 27.6035V28.8047H67.7125V24.2461H68.1666V26.6631C68.1666 26.7705 68.1592 26.9365 68.1445 27.1611H68.1666Z" fill="black"/>
<path d="M73.3119 27.1963C73.3119 27.7197 73.1873 28.1289 72.9381 28.4238C72.6888 28.7168 72.3445 28.8633 71.9051 28.8633C71.6337 28.8633 71.3928 28.7959 71.1824 28.6611C70.9719 28.5264 70.8094 28.333 70.695 28.0811C70.5805 27.8291 70.5233 27.5342 70.5233 27.1963C70.5233 26.6729 70.647 26.2656 70.8944 25.9746C71.1417 25.6816 71.4851 25.5352 71.9245 25.5352C72.3491 25.5352 72.6861 25.6846 72.9353 25.9834C73.1864 26.2822 73.3119 26.6865 73.3119 27.1963ZM70.9996 27.1963C70.9996 27.6064 71.0771 27.9189 71.2322 28.1338C71.3873 28.3486 71.6153 28.4561 71.9162 28.4561C72.2171 28.4561 72.4451 28.3496 72.6002 28.1367C72.7571 27.9219 72.8356 27.6084 72.8356 27.1963C72.8356 26.7881 72.7571 26.4785 72.6002 26.2676C72.4451 26.0547 72.2153 25.9482 71.9107 25.9482C71.6097 25.9482 71.3827 26.0527 71.2294 26.2617C71.0762 26.4707 70.9996 26.7822 70.9996 27.1963Z" fill="black"/>
<path d="M74.5526 25.5938V27.6768C74.5526 27.9385 74.6089 28.1338 74.7215 28.2627C74.8341 28.3916 75.0104 28.4561 75.2504 28.4561C75.568 28.4561 75.7997 28.3643 75.9455 28.1807C76.0932 27.9971 76.167 27.6973 76.167 27.2812V25.5938H76.6267V28.8047H76.2473L76.1809 28.374H76.156C76.0618 28.5322 75.9307 28.6533 75.7627 28.7373C75.5966 28.8213 75.4064 28.8633 75.1923 28.8633C74.823 28.8633 74.5461 28.7705 74.3615 28.585C74.1787 28.3994 74.0873 28.1025 74.0873 27.6943V25.5938H74.5526Z" fill="black"/>
<path d="M78.5846 28.4619C78.6658 28.4619 78.7443 28.4561 78.82 28.4443C78.8957 28.4307 78.9557 28.417 79 28.4033V28.7754C78.9501 28.8008 78.8763 28.8213 78.7785 28.8369C78.6825 28.8545 78.5957 28.8633 78.5181 28.8633C77.9311 28.8633 77.6375 28.5361 77.6375 27.8818V25.9717H77.2027V25.7373L77.6375 25.5352L77.8314 24.8496H78.0972V25.5938H78.9778V25.9717H78.0972V27.8613C78.0972 28.0547 78.1406 28.2031 78.2274 28.3066C78.3141 28.4102 78.4332 28.4619 78.5846 28.4619Z" fill="black"/>
</svg>
