<svg width="440" height="65" viewBox="0 0 440 65" fill="none" xmlns="http://www.w3.org/2000/svg">
<path d="M247.567 9.28821C246.402 16.3802 247.659 19.8751 253.153 26.2508C255.845 19.6672 253.519 14.644 247.567 9.28821ZM199.677 31.6929C200.911 24.9622 201.153 19.6736 198.56 14.5385C197.645 12.7319 196.546 10.1963 193.637 10.7494C190.708 11.3058 190.885 13.9085 191.226 15.9102C192.144 21.3363 194.745 26.1517 199.677 31.6929ZM130.828 38.3245C135.785 31.2101 135.215 20.2843 129.749 14.3082C128.298 12.7223 126.694 10.7207 123.921 11.6831C121.615 12.4857 120.324 14.3274 120.188 16.5753C119.663 25.2532 123.225 32.4124 130.828 38.3245ZM439.5 23.9327C439.123 24.1693 438.742 24.6105 438.364 24.6105C416.982 24.6041 397.379 31.1621 377.442 36.5595C358.022 41.8225 338.997 48.2622 318.818 51.3254C298.123 54.4653 278.115 52.7195 259.283 44.5084C255.129 42.6954 253.445 43.4884 251.107 46.4045C244.583 54.5357 235.277 57.5989 223.903 56.7291C216.336 56.1504 209.002 54.9545 202.277 51.8498C199.638 50.6316 197.868 50.4269 195.3 52.4254C175.17 68.077 154.291 69.0746 131.855 55.658C129.848 54.4589 128.262 53.1544 125.428 54.4046C112.145 60.256 97.9786 60.0066 83.7109 58.3695C66.9714 56.451 51.599 51.3926 37.2398 43.7506C21.1011 35.1622 10.2647 22.9542 2.68591 8.33537C2.14753 7.29299 1.77241 6.18025 1.38273 5.08352C0.777101 3.37287 -0.562687 1.24016 2.06869 0.24894C4.94068 -0.83181 5.41816 1.87322 6.48035 3.25453C27.1055 30.0366 56.1381 45.199 93.2251 49.084C101.236 49.9249 109.317 49.7491 117.215 47.9777C118.46 47.6995 119.778 47.3254 120.706 45.9664C117.863 40.2525 115.242 34.2701 113.814 27.9231C112.979 24.214 113.112 20.6296 114.085 17.0293C115.111 13.2435 117.259 10.1707 122.029 9.12513C127.174 7.99962 130.809 10.1547 133.936 13.2947C136.42 15.7855 137.973 18.708 139.083 21.8031C141.339 28.0798 142.299 34.5227 139.434 40.7194C137.849 44.1503 139.178 45.7234 142.153 47.4884C151.91 53.2855 162.023 57.6628 174.428 54.5261C179.398 53.2663 183.738 51.0824 187.833 48.4061C190.872 46.4205 191.948 44.6715 189.056 41.7106C185.236 37.7937 183.004 33.055 181.419 28.1405C179.7 22.8135 180.127 17.6496 183.532 12.847C188.427 5.94685 196.534 5.76461 201.472 12.5848C205.087 17.5857 206.572 23.1652 206.083 29.0678C205.97 30.4331 205.881 31.8592 205.363 33.135C202.45 40.2909 207.171 44.4476 213.353 47.8498C225.279 54.4142 238.738 52.0321 246.691 42.3437C248.612 40.0064 248.587 38.5323 246.108 36.5563C241.095 32.5594 237.666 27.6897 236.284 21.8351C235.742 19.5361 235.645 17.333 236.301 15.0309C237.716 10.0748 240.518 7.13628 244.667 6.79096C250.013 6.34011 253.196 9.08995 255.509 12.6711C258.422 17.1828 260.415 22.1548 258.977 27.2164C257.481 32.4635 260.048 35.3508 264.644 38.0367C280.011 47.028 297.095 48.3262 314.817 46.1711C332.975 43.9648 350.124 38.4364 367.564 33.8704C384.982 29.3044 402.086 23.6353 420.464 22.2316C425.557 21.8415 430.638 21.5377 435.745 21.9598C437.344 22.0909 439.033 22.1517 439.5 23.9327Z" fill="#FFBE00"/>
</svg>
