<svg width="28" height="20" viewBox="0 0 28 20" fill="none" xmlns="http://www.w3.org/2000/svg">
<rect x="1.17133" y="0.795358" width="25.6811" height="17.899" rx="2.72375" fill="white"/>
<rect x="1.17133" y="0.795358" width="25.6811" height="17.899" rx="2.72375" stroke="white" stroke-width="0.778215"/>
<path fill-rule="evenodd" clip-rule="evenodd" d="M14.1509 13.503C13.2295 14.2796 12.0343 14.7484 10.7283 14.7484C7.81394 14.7484 5.45142 12.414 5.45142 9.53435C5.45142 6.65472 7.81394 4.32031 10.7283 4.32031C12.0343 4.32031 13.2295 4.78915 14.1509 5.56578C15.0724 4.78917 16.2676 4.32036 17.5736 4.32036C20.4879 4.32036 22.8504 6.65476 22.8504 9.5344C22.8504 12.414 20.4879 14.7484 17.5736 14.7484C16.2675 14.7484 15.0723 14.2796 14.1509 13.503Z" fill="#ED0006"/>
<path fill-rule="evenodd" clip-rule="evenodd" d="M14.1511 13.5027C15.2856 12.5464 16.005 11.1234 16.005 9.53435C16.005 7.94533 15.2856 6.52233 14.1511 5.56598C15.0726 4.78923 16.2679 4.32031 17.5741 4.32031C20.4884 4.32031 22.8509 6.65472 22.8509 9.53435C22.8509 12.414 20.4884 14.7484 17.5741 14.7484C16.2679 14.7484 15.0726 14.2795 14.1511 13.5027Z" fill="#F9A000"/>
<path fill-rule="evenodd" clip-rule="evenodd" d="M14.151 13.5035C15.2856 12.5471 16.0051 11.1241 16.0051 9.53494C16.0051 7.94583 15.2856 6.52276 14.151 5.56641C13.0163 6.52276 12.2969 7.94583 12.2969 9.53494C12.2969 11.1241 13.0163 12.5471 14.151 13.5035Z" fill="#FF5E00"/>
</svg>
