<svg width="37" height="26" viewBox="0 0 37 26" fill="none" xmlns="http://www.w3.org/2000/svg">
<rect x="1.31831" y="0.560983" width="35.0197" height="24.1247" rx="4.28018" fill="white"/>
<rect x="1.31831" y="0.560983" width="35.0197" height="24.1247" rx="4.28018" stroke="white" stroke-width="0.778215"/>
<path fill-rule="evenodd" clip-rule="evenodd" d="M12.0838 16.6282H9.94654L8.34388 10.3341C8.26781 10.0446 8.10629 9.78865 7.86871 9.66801C7.27579 9.36485 6.62242 9.12358 5.90967 9.00189V8.75957H9.35258C9.82775 8.75957 10.1841 9.12358 10.2435 9.54633L11.0751 14.0865L13.2113 8.75957H15.2891L12.0838 16.6282ZM16.4771 16.6282H14.4586L16.1207 8.75957H18.1391L16.4771 16.6282ZM20.7505 10.9395C20.8099 10.5157 21.1663 10.2733 21.5821 10.2733C22.2354 10.2125 22.9471 10.3342 23.5411 10.6363L23.8975 8.94213C23.3035 8.69981 22.6502 8.57812 22.0572 8.57812C20.0982 8.57812 18.6727 9.66805 18.6727 11.1807C18.6727 12.3315 19.6824 12.9357 20.3952 13.2997C21.1663 13.6627 21.4633 13.905 21.4039 14.268C21.4039 14.8124 20.8099 15.0547 20.217 15.0547C19.5042 15.0547 18.7915 14.8732 18.1391 14.5701L17.7828 16.2653C18.4955 16.5674 19.2666 16.6891 19.9794 16.6891C22.176 16.7489 23.5411 15.66 23.5411 14.0256C23.5411 11.9675 20.7505 11.8468 20.7505 10.9395ZM30.6049 16.6282L29.0022 8.75957H27.2807C26.9244 8.75957 26.568 9.00189 26.4492 9.36485L23.4814 16.6282H25.5593L25.974 15.4785H28.527L28.7646 16.6282H30.6049ZM27.5779 10.8786L28.1709 13.8441H26.5088L27.5779 10.8786Z" fill="#172B85"/>
</svg>
