<svg width="56" height="56" viewBox="0 0 56 56" fill="none" xmlns="http://www.w3.org/2000/svg">
<path d="M50.5 18.0012C51.8261 18.0012 53.0979 18.528 54.0355 19.4657C54.9732 20.4034 55.5 21.6751 55.5 23.0012V33.0012C55.5 34.3273 54.9732 35.5991 54.0355 36.5368C53.0979 37.4744 51.8261 38.0012 50.5 38.0012H47.845C47.2355 42.8345 44.8832 47.2792 41.2294 50.5012C37.5756 53.7233 32.8715 55.5011 28 55.5012V50.5012C31.9782 50.5012 35.7936 48.9209 38.6066 46.1078C41.4197 43.2948 43 39.4795 43 35.5012V20.5012C43 16.523 41.4197 12.7077 38.6066 9.89462C35.7936 7.08157 31.9782 5.50122 28 5.50122C24.0218 5.50122 20.2064 7.08157 17.3934 9.89462C14.5804 12.7077 13 16.523 13 20.5012V38.0012H5.5C4.17392 38.0012 2.90215 37.4744 1.96447 36.5368C1.02678 35.5991 0.5 34.3273 0.5 33.0012V23.0012C0.5 21.6751 1.02678 20.4034 1.96447 19.4657C2.90215 18.528 4.17392 18.0012 5.5 18.0012H8.155C8.76508 13.1685 11.1177 8.7244 14.7714 5.50291C18.4252 2.28141 23.1289 0.503906 28 0.503906C32.8711 0.503906 37.5748 2.28141 41.2286 5.50291C44.8823 8.7244 47.2349 13.1685 47.845 18.0012H50.5ZM17.4 37.4637L20.05 33.2237C22.4327 34.7163 25.1884 35.5058 28 35.5012C30.8116 35.5058 33.5673 34.7163 35.95 33.2237L38.6 37.4637C35.4231 39.4541 31.7489 40.507 28 40.5012C24.2511 40.5071 20.5768 39.4542 17.4 37.4637Z" fill="#999999"/>
</svg>
